<svg xmlns="http://www.w3.org/2000/svg" xml:space="preserve" viewBox="0 0 5000 5000" id="exotic-houseplant-in-hanging-pot">
  <path d="M2699.956 4055.149h-530.222c-223.109 0-414.614-158.826-455.878-378.086l-50.443-268.032h1542.864l-50.443 268.032c-41.264 219.26-232.769 378.086-455.878 378.086" style="fill:#ffd561"></path>
  <path d="M2699.956 4060.148h-530.223c-225.327 0-419.118-160.722-460.792-382.161l-50.443-268.032a4.998 4.998 0 0 1 4.914-5.925h1542.864a5 5 0 0 1 4.914 5.925l-50.442 268.032c-41.674 221.44-235.465 382.161-460.792 382.161M1669.441 3414.03l49.328 262.107c40.786 216.717 230.444 374.011 450.965 374.011h530.223c220.521 0 410.179-157.294 450.964-374.011l49.328-262.107zM2398.409 4522.475q-.105 0-.211-.004a5 5 0 0 1-4.788-5.204c4.741-113.965 36.896-260.169 37.22-261.632a5 5 0 1 1 9.763 2.162c-.323 1.455-32.288 146.815-36.992 259.886a5 5 0 0 1-4.992 4.792M2501.292 4522.475a5 5 0 0 1-4.992-4.792c-4.705-113.092-36.669-258.431-36.992-259.886a5 5 0 0 1 9.763-2.162c.324 1.463 32.479 147.667 37.22 261.632a5 5 0 0 1-4.999 5.208M2451.164 4554a5 5 0 0 1-5-5v-292.284a5 5 0 1 1 10 0V4549a5 5 0 0 1-5 5" style="fill:#3c3c3c"></path>
  <path d="M2451.168 4244.151a5 5 0 0 1-1.309-.175c-88.956-24.065-172.203-61.722-247.43-111.92-72.594-48.443-139.929-110.047-200.135-183.101-57.817-70.156-110.873-153.079-157.693-246.467-44.73-89.219-85.222-190.896-120.349-302.209a5 5 0 1 1 9.536-3.009c149.2 472.783 384.283 746.585 718.682 837.054a5 5 0 0 1-1.302 9.827" style="fill:#3c3c3c"></path>
  <path d="M2451.168 4244.15a5 5 0 0 1-3.896-1.862c-103.594-128.544-187.337-263.81-248.903-402.041-62.837-141.085-104.42-289.406-123.594-440.844a5 5 0 0 1 4.333-5.588 5 5 0 0 1 5.588 4.332c37.708 297.814 162.316 579.714 370.363 837.865a5 5 0 0 1-3.891 8.138" style="fill:#3c3c3c"></path>
  <path d="M2451.168 4255.468a5 5 0 0 1-4.554-2.931 5 5 0 0 1 2.481-6.621c315.459-143.498 544.109-413.276 719.572-849.009a4.996 4.996 0 0 1 6.506-2.77 5 5 0 0 1 2.77 6.506c-82.927 205.936-174.783 370.715-280.816 503.753-60.058 75.353-126.314 142.28-196.93 198.924-75.21 60.329-158.299 111.367-246.96 151.697a5 5 0 0 1-2.069.451" style="fill:#3c3c3c"></path>
  <path d="M2451.163 4255.467a5 5 0 0 1-3.829-8.212c214.819-256.276 339.399-541.915 370.282-848.979a5 5 0 0 1 9.95 1c-15.614 155.262-55.119 306.148-117.416 448.467-61.729 141.022-147.574 277.599-255.151 405.937a5 5 0 0 1-3.836 1.787" style="fill:#3c3c3c"></path>
  <path d="M2451.164 4255.469a5 5 0 0 1-5-5V3409.03a5 5 0 1 1 10 0v841.438a5 5 0 0 1-5 5.001" style="fill:#3c3c3c"></path>
  <circle cx="2451.164" cy="4250.469" r="47.23" style="fill:#ffd561"></circle>
  <path d="M2451.164 4302.699c-28.8 0-52.23-23.431-52.23-52.23s23.43-52.229 52.23-52.229 52.229 23.43 52.229 52.229-23.43 52.23-52.229 52.23m0-94.46c-23.286 0-42.23 18.944-42.23 42.229 0 23.286 18.944 42.23 42.23 42.23s42.229-18.944 42.229-42.23c0-23.284-18.944-42.229-42.229-42.229" style="fill:#3c3c3c"></path>
  <path d="M2547.229 3409.03s194.295-150.402 451.022-209.308 300.964-280.114 454.429-394.415c0 0-308.546-73.241-601.114 225.346s-345.15 378.377-345.15 378.377z" style="fill:#9ac977"></path>
  <path d="M2547.229 3414.03h-40.812a5 5 0 0 1-4.174-7.751c2.157-3.274 56.176-83.591 345.753-379.125 67.121-68.503 140.696-123.057 218.682-162.147 62.439-31.298 127.823-52.807 194.335-63.928 113.401-18.962 189.635-1.394 192.824-.637a5 5 0 0 1 1.831 8.875c-54.912 40.898-95.19 94.96-137.834 152.195-75.114 100.817-152.786 205.068-318.464 243.082-131.963 30.279-247.009 85.306-320.283 126.136-79.466 44.279-128.312 81.879-128.797 82.254a5 5 0 0 1-3.061 1.046m-31.002-10h29.317c8.502-6.416 55.831-41.431 128.489-81.932 73.882-41.183 189.909-96.689 323.101-127.25 162.093-37.192 238.647-139.943 312.682-239.311 40.775-54.729 79.409-106.583 130.961-147.391-24.908-4.104-91.172-11.812-178.618 2.879-102.881 17.287-257.009 70.03-407.02 223.126-240.477 245.426-319.118 343.582-338.912 369.879" style="fill:#3c3c3c"></path>
  <path d="M2523.053 3414.03a5 5 0 0 1-3.57-8.501c.751-.766 76.287-77.661 181.225-172.587 96.9-87.653 239.427-209.067 368.144-289.703 78.302-49.054 178.231-85.276 248.272-107.025 75.811-23.541 133.966-35.683 134.544-35.802a5 5 0 0 1 5.91 3.881 5 5 0 0 1-3.881 5.91c-.574.119-58.343 12.185-133.714 35.594-69.442 21.568-168.46 57.452-245.823 105.917-128.083 80.239-270.106 201.23-366.694 288.6-104.728 94.732-180.093 171.453-180.842 172.218a5 5 0 0 1-3.571 1.498" style="fill:#3c3c3c"></path>
  <path d="M2477.92 3409.03s-52.722-382.639 263.527-686.458 783.338-607.637 957.874-848.324c0 0-19.79 448.347-352.746 717.227-395.659 319.515-418.222 608.436-799.345 817.556z" style="fill:#9ac977"></path>
  <path d="M2547.229 3414.03h-69.31a5 5 0 0 1-4.953-4.317c-.133-.965-12.991-98.026 13.218-230.947 15.387-78.035 41.025-153.065 76.202-223.008 43.972-87.43 103.051-167.098 175.596-236.791 130.956-125.809 287.433-251.367 438.757-372.791 214.229-171.899 416.577-334.265 518.533-474.864a4.998 4.998 0 0 1 9.043 3.155c-.05 1.127-5.512 114.426-51.747 259.085-27.158 84.971-62.869 164.044-106.143 235.023-54.133 88.793-120.316 165.095-196.71 226.788-180.099 145.439-284.863 287.482-377.295 412.805-56.615 76.762-110.092 149.267-175.62 217.139-73.521 76.149-152.059 135.921-247.166 188.106a5 5 0 0 1-2.405.617m-64.853-10h63.57c205.424-113.007 304.152-246.859 418.427-401.797 47.625-64.57 96.87-131.34 157.132-200.641 68.363-78.616 140.956-148.619 221.928-214.008 170.94-138.044 257.23-324.597 299.518-456.787 35.464-110.859 46.768-203.062 50.096-239.748-105.609 138.4-302.254 296.189-510.048 462.925-151.154 121.287-307.453 246.703-438.088 372.202-162.295 155.917-224.897 333.016-248.836 454.127-22.858 115.641-15.805 203.657-13.699 223.727" style="fill:#3c3c3c"></path>
  <path d="M2506.423 3414.031q-.56 0-1.13-.129a5 5 0 0 1-3.747-5.997c26.598-115.167 63.791-220.622 110.547-313.435 41.958-83.29 91.597-157.58 151.753-227.115 111.075-128.392 237.312-216.17 359.392-301.058 77.681-54.016 151.054-105.035 217.191-164.061 141.51-126.294 230.236-263.467 279.75-356.302 53.678-100.643 74.128-172.328 74.328-173.04a5 5 0 0 1 6.166-3.46 5 5 0 0 1 3.461 6.165c-.202.72-20.859 73.221-74.978 174.752-31.759 59.583-68.682 117.426-109.743 171.922-51.329 68.123-109.308 131.181-172.326 187.424-66.59 59.429-140.204 110.617-218.141 164.81-237.135 164.891-505.908 351.781-617.656 835.647a5 5 0 0 1-4.867 3.877" style="fill:#3c3c3c"></path>
  <path d="M2389.572 3409.03s-207.561-210.03-201.773-554.778 57.529-845.63-11.744-1122.05c0 0 316.937 339.016 289.551 700.204s-58.168 783.506-13.184 976.624z" style="fill:#9ac977"></path>
  <path d="M2452.422 3414.03h-62.851a5 5 0 0 1-3.556-1.485c-.524-.53-52.989-54.124-103.909-149.264-29.884-55.836-53.451-114.912-70.045-175.585-20.745-75.848-30.59-154.418-29.262-233.527 1.503-89.505 6.054-188.507 10.872-293.32 13.433-292.22 28.658-623.429-22.467-827.431a5 5 0 0 1 8.502-4.629c.796.852 80.488 86.655 155.711 215.551 44.206 75.746 78.277 151.376 101.27 224.79 28.792 91.929 40.198 180.635 33.903 263.656-15.323 202.097-28.438 383.06-33.719 551.118-6.267 199.414.412 338.104 20.419 423.993a4.998 4.998 0 0 1-4.868 6.133m-60.716-10h54.459c-19.126-87.133-25.436-224.806-19.287-420.442 5.288-168.262 18.41-349.341 33.742-551.559 14.044-185.218-64.967-364.59-133.721-482.449-56.643-97.097-115.811-169.532-141.415-199.207 45.959 206.503 31.225 527.074 18.176 810.935-4.814 104.739-9.362 203.67-10.862 293.029-2.972 177.013 51.72 317.522 98.124 404.226 45.574 85.149 92.138 136.304 100.784 145.467" style="fill:#3c3c3c"></path>
  <path d="M2425.872 3414.031a5 5 0 0 1-4.67-3.212c-113.419-295.999-91.303-484.669-67.889-684.417 17.004-145.062 34.588-295.063.08-495.206-29.536-171.309-77.346-297.161-112.252-372.572-37.735-81.524-68.768-123-69.077-123.409a5 5 0 1 1 7.982-6.024c1.288 1.707 31.988 42.744 70.17 125.233 35.159 75.958 83.31 202.689 113.031 375.074 34.753 201.569 17.085 352.301-.002 498.069-23.268 198.491-45.244 385.974 67.294 679.675a5 5 0 0 1-4.667 6.789" style="fill:#3c3c3c"></path>
  <path d="M2506.418 3409.03s457.315-267.819 973.428-143.519 597.178 42.581 597.178 42.581-40.532 88.053-332.366 141.631-538.381-40.693-538.381-40.693z" style="fill:#9ac977"></path>
  <path d="M3559.61 3471.194c-7.42 0-14.845-.076-22.293-.228-57.008-1.158-114.923-6.733-172.135-16.57-91.194-15.681-151.864-37.436-159.808-40.366h-698.957a5 5 0 0 1-2.526-9.314c1.148-.673 116.922-67.862 294.316-118.862 104.18-29.952 208.975-48.573 311.475-55.346 128.186-8.471 253.119 1.672 371.334 30.142 263 63.341 410.036 71.93 487.069 67.969 83.759-4.299 105.231-23.899 105.438-24.097a4.96 4.96 0 0 1 6.374-.562c1.993 1.382 2.682 4.021 1.668 6.224-.439.955-11.311 23.722-58.665 52.89-42.894 26.42-125.827 63.752-277.34 91.568-59.906 10.997-122.362 16.551-185.95 16.552m-1033.638-67.164h680.305c.61 0 1.216.111 1.785.329.613.235 62.502 23.645 159.086 40.229 89.059 15.29 226.688 27.74 376.607.217 148.695-27.299 230.206-63.645 272.401-89.328 20.325-12.371 33.705-23.509 42.302-32.072-16.229 5.991-43.135 12.517-86.192 15.001-49.524 2.858-110.751-.116-181.983-8.839-88.859-10.882-193.699-30.798-311.607-59.194-265.432-63.926-514.886-21.686-677.411 25.008-137.111 39.389-237.098 88.472-275.293 108.649" style="fill:#3c3c3c"></path>
  <path d="M2547.229 3409.03s304.135-431.91 692.83-354.007c624.928 125.25 944.573-187.047 1097.248 63.798 0 0-185.97-45.304-363.894 41.612s-520.023 207.151-814.54 172.681-611.644 75.916-611.644 75.916" style="fill:#c5eda8"></path>
  <path d="M2547.23 3414.03a5.001 5.001 0 0 1-4.089-7.879c.765-1.086 77.886-109.702 201.647-207.265 72.784-57.377 147.262-99.812 221.362-126.127 92.847-32.971 185.333-40.588 274.891-22.639 298.681 59.86 531.614 18.724 701.696-11.314 93.36-16.488 173.991-30.726 239.482-24.024 34.801 3.562 64.01 12.8 89.294 28.242 27.324 16.688 50.242 40.631 70.064 73.197a5 5 0 0 1-.235 5.551 5 5 0 0 1-5.219 1.907c-.461-.112-46.938-11.227-114.372-11.648-62.08-.358-155.213 8.475-246.146 52.895-107.791 52.656-240.651 100.847-364.515 132.215-77.894 19.727-153.665 33.43-225.212 40.73-81.309 8.298-157.88 8.368-227.589.209-151.428-17.723-309.008 3.777-414.535 24.935-114.471 22.951-194.093 50.463-194.884 50.738a5 5 0 0 1-1.64.277m599.298-363.275c-160.481 0-300.373 80.997-395.347 155.826-98.084 77.278-166.604 161.551-190.522 192.785 28.436-9.033 94.934-28.866 180.965-46.123 67.603-13.561 133.898-22.912 197.045-27.795 79.002-6.105 153.286-5.2 220.785 2.7 273.453 31.997 608.197-72.765 811.765-172.207 90.754-44.334 183.508-53.922 246.709-53.922q2.116 0 4.188.014c48.541.326 86.47 6.119 104.633 9.511-35.511-53.28-80.847-80.191-145.545-86.813-64.118-6.563-144.104 7.565-236.726 23.924-88.372 15.607-188.535 33.297-305.457 39.79-135.755 7.54-266.579-1.788-399.943-28.519a470 470 0 0 0-92.55-9.171" style="fill:#3c3c3c"></path>
  <path d="M2547.232 3414.03a5.001 5.001 0 0 1-3.166-8.873c103.05-84.152 204.482-150.924 301.481-198.457 85.396-41.849 167.075-69.314 249.704-83.968 150.504-26.688 270.655-3.618 367.197 14.918 50.006 9.602 93.192 17.895 131.86 17.895 116.729 0 254.563-38.43 376.172-72.335 75.869-21.153 141.392-39.421 187.565-44.039 62.632-6.258 109.105 14.885 137.062 33.728 30.318 20.435 45.66 42.146 46.298 43.061a5 5 0 0 1-8.196 5.729c-.148-.211-15.133-21.335-44.034-40.728-26.539-17.807-70.654-37.788-130.136-31.838-45.313 4.531-110.451 22.691-185.873 43.721-122.227 34.077-260.761 72.702-378.858 72.702-39.619 0-83.239-8.376-133.746-18.073-188.653-36.225-473.747-90.966-910.171 265.432a4.98 4.98 0 0 1-3.159 1.125" style="fill:#3c3c3c"></path>
  <path d="M2425.87 3409.03s77.714-318.384-224.249-720.077c-265.404-353.059-528.274-376.761-765.434-622.091 0 0 135.861 513.667 519.626 858.914s433.759 483.254 433.759 483.254z" style="fill:#c5eda8"></path>
  <path d="M2425.871 3414.03h-36.299a5 5 0 0 1-4.701-3.297c-.123-.336-13.316-35.323-73.058-111.877-55.069-70.566-162.114-191.929-359.344-369.363-87.825-79.011-169.873-173.464-243.864-280.734-59.165-85.776-113.342-179.899-161.028-279.753-81.199-170.028-115.882-299.576-116.223-300.865a5 5 0 0 1 8.429-4.753c99.177 102.593 201.467 165.396 309.762 231.885 148.266 91.029 301.579 185.157 456.073 390.676 69.135 91.969 123.998 187.215 163.064 283.095 31.278 76.766 52.559 154.11 63.251 229.885 18.242 129.272-.402 208-1.205 211.288a5 5 0 0 1-4.857 3.813m-32.951-10h28.906c3.452-17.319 15.985-92.442.123-204.29-16.696-117.725-69.167-301.382-224.324-507.782-153.353-204.001-305.843-297.624-453.312-388.164-103.834-63.75-202.168-124.121-297.863-219.394 12.547 41.752 47.39 148.911 110.254 280.511 74.551 156.066 204.891 379.413 402.455 557.148 198.513 178.588 306.097 300.727 361.392 371.739 50.598 64.984 67.834 99.865 72.369 110.232" style="fill:#3c3c3c"></path>
  <path d="M2411.582 3414.03a5 5 0 0 1-4.979-4.6c-33.427-416.05-259.69-766.547-672.503-1041.756-128.916-85.943-204.194-162.424-244.644-211.449-44.091-53.438-57.371-86.148-57.915-87.514a5 5 0 0 1 9.289-3.703c.13.325 13.488 33.035 56.808 85.421 40.009 48.381 114.472 123.9 242.008 208.924 168.404 112.269 308.069 239.726 415.117 378.83 154.064 200.2 242.149 425.771 261.807 670.446a5 5 0 0 1-4.988 5.401" style="fill:#3c3c3c"></path>
  <path d="M971.464 2306.445s111.073 151.262 204.952 388.256 321.377 464.806 687.03 542.266 444.939 172.064 444.939 172.064h81.187s-76.433-266.31-362.393-494.646-537.362-160.246-729.982-361.477c-192.621-201.231-325.733-246.463-325.733-246.463" style="fill:#9ac977"></path>
  <path d="M2389.572 3414.03h-81.187a5 5 0 0 1-3.832-1.788c-.189-.223-20.564-23.746-85.016-56.364-59.48-30.103-169.722-74.319-357.128-114.02-88.655-18.781-172.616-47.202-249.55-84.473-72.139-34.948-138.778-77.98-198.064-127.902-109.101-91.868-193.138-206.998-243.028-332.941-92.536-233.603-203.227-385.63-204.334-387.139a5 5 0 0 1 5.639-7.693c1.382.47 34.504 11.919 91.708 48.285 52.563 33.416 136.181 95.144 236.028 199.455 95.531 99.801 203.409 132.051 328.322 169.394 120.758 36.101 257.629 77.019 401.168 191.633 65.492 52.295 125.376 110.948 177.99 174.332 42.098 50.715 79.664 104.556 111.653 160.027 54.528 94.556 74.244 162.144 74.437 162.815a5 5 0 0 1-4.806 6.379m-78.988-10h72.169c-6.188-18.813-27.251-77.573-71.664-154.526-49.821-86.323-140.06-213.857-287.031-331.213-142.023-113.403-277.906-154.026-397.793-189.866-61.862-18.494-120.293-35.962-175.827-61.606-62.515-28.869-112.356-63.966-156.854-110.454-98.94-103.363-181.7-164.526-233.705-197.635-33.869-21.562-59.438-34.346-74.515-41.137 29.356 42.966 118.804 181.147 195.699 375.266 108.394 273.635 357.49 470.171 683.418 539.217 189.417 40.126 300.766 84.965 360.821 115.515 56.294 28.635 79.323 50.224 85.282 56.439" style="fill:#3c3c3c"></path>
  <path d="M2355.365 3414.031a5 5 0 0 1-4.44-2.694c-210.704-405.216-424.315-492.375-623.766-526.2-116.667-19.786-206.049-49.707-281.293-94.164-80.38-47.491-146.665-113.756-202.641-202.58-58.297-92.507-129.763-163.062-179.45-205.96-53.895-46.532-94.511-71.473-94.916-71.72a5 5 0 0 1 5.208-8.538c.409.25 41.582 25.517 96.062 72.532 50.256 43.369 122.549 114.721 181.556 208.353 105.896 168.039 244.135 252.699 477.146 292.217 130.507 22.133 229.569 62.839 321.2 131.983 113.018 85.283 214.343 215.949 309.766 399.463a5 5 0 0 1-4.432 7.308" style="fill:#3c3c3c"></path>
  <path d="M662.693 3449.723s140.126-280.34 503.068-310.096c322.293-26.423 697.597 92.004 884.982 78.052s338.829 191.351 338.829 191.351h-81.187s-80.343-53.565-160.702-46.464-318.334 153.481-656.43 109.688-426.064-159.487-828.56-22.531" style="fill:#c5eda8"></path>
  <path d="M1617.371 3485.393a985.5 985.5 0 0 1-126.759-8.179c-97.354-12.61-174.882-31.373-243.283-47.927-172.702-41.794-297.48-71.992-583.025 25.169a5 5 0 0 1-6.082-6.968c.354-.709 36.371-71.761 116.522-145.338 47.049-43.189 99.923-78.864 157.153-106.033 71.521-33.954 150.066-54.636 233.456-61.473 184.712-15.145 384.365 16.751 560.514 44.89 131.328 20.979 244.749 39.101 324.506 33.159 43.548-3.237 88.741 4.967 134.327 24.399 36.301 15.475 72.931 38.064 108.873 67.144 61.076 49.413 99.642 101.309 100.024 101.827a4.999 4.999 0 0 1-4.024 7.968h-81.187a5 5 0 0 1-2.772-.839c-.789-.525-79.857-52.497-157.489-45.646-20.779 1.836-53.777 13.764-95.553 28.864-96.353 34.829-246.171 88.982-435.201 88.983m-623.679-105.539c1.71 0 3.41.007 5.114.02 89.69.688 164.385 18.764 250.875 39.695 68.154 16.493 145.401 35.188 242.215 47.728 246.74 31.961 441.132-38.307 557.276-80.29 42.459-15.348 75.997-27.471 98.072-29.421 42.521-3.756 84.833 9.31 112.842 20.933 26.281 10.906 44.831 22.343 49.782 25.513h69.45c-13.106-16.273-46.15-54.929-92.222-92.171-55.17-44.598-140.895-96.284-235.981-89.194-80.923 6.02-194.878-12.178-326.826-33.257-175.589-28.05-374.609-59.84-558.119-44.798-185.875 15.238-311.604 97.93-384.347 164.615-60.347 55.321-95.236 109.079-108.475 131.636 124.838-41.544 227.099-61.009 320.344-61.009" style="fill:#3c3c3c"></path>
  <path d="M662.69 3454.723a5 5 0 0 1-3.792-8.257c.402-.469 41.056-47.474 111.657-99.436 41.451-30.508 85.008-56.776 129.462-78.077 55.611-26.647 112.793-45.553 169.958-56.19 57.158-10.635 116.52-11.873 181.478-3.781 57.915 7.215 115.347 21.09 170.889 34.507 109.009 26.335 221.73 53.566 352.144 35.932 12.361-1.671 24.493-3.335 36.407-4.969 124.38-17.057 222.622-30.529 311.168-16.831 46.625 7.212 87.924 21.748 126.258 44.438 41.117 24.338 79.386 58.286 116.995 103.787a5 5 0 0 1-7.708 6.371c-150.44-182.013-299.086-161.628-545.354-127.857-11.92 1.635-24.059 3.299-36.426 4.972-132.275 17.883-245.925-9.569-355.833-36.121-114.725-27.715-223.088-53.896-348.189-30.614-127.44 23.714-230.812 85.044-295.088 132.317-69.761 51.307-109.834 97.606-110.231 98.068a5 5 0 0 1-3.795 1.741" style="fill:#3c3c3c"></path>
  <path d="M2773.928 1874.248s-185.534 185.448-213.273 497.157c-27.738 311.71-269.452 603.506-134.785 1037.625h80.548s318.571-448.234 330.363-806.061c11.792-357.826-58.583-527.491-62.853-728.721" style="fill:#c5eda8"></path>
  <path d="M2506.418 3414.03h-80.547a5 5 0 0 1-4.775-3.519c-39.828-128.393-50.273-255.948-31.932-389.956 16.175-118.183 52.017-226.362 86.678-330.98 36.197-109.253 70.386-212.447 79.833-318.613 6.363-71.508 21.6-142.291 45.284-210.383a895.4 895.4 0 0 1 72.418-157.166c49.603-84.901 96.549-132.233 97.018-132.702a5.001 5.001 0 0 1 8.533 3.43c1.65 77.813 13 149.438 26.142 232.373 20.595 129.974 43.938 277.29 36.709 496.621-2.706 82.112-21.837 175.765-56.859 278.355-27.971 81.931-66.091 169.741-113.301 260.992-80.349 155.303-160.326 268.321-161.125 269.444a5 5 0 0 1-4.076 2.104m-76.856-10h74.257c11.268-16.138 84.956-123.167 158.983-266.271 73.744-142.557 162.922-351.086 168.981-534.954 7.196-218.377-16.067-365.193-36.592-494.725-12.51-78.949-23.403-147.7-25.924-221.495-15.456 17.203-50.668 59.188-87.438 122.184-45.151 77.354-101.962 203.137-116.194 363.081-9.551 107.322-43.917 211.052-80.302 320.872-69.895 210.965-142.156 429.097-55.771 711.308" style="fill:#3c3c3c"></path>
  <path d="M2467.278 3414.031a5 5 0 0 1-4.954-4.37c-10.502-82.58-4.193-173.922 19.289-279.242 20.686-92.784 51.7-184.484 81.693-273.165 10.501-31.048 20.419-60.373 29.959-89.858 67.745-209.396 100.438-320.361 103.331-552.745 1.536-123.343 21.248-209.896 37.514-260.784 17.727-55.462 34.949-81.34 35.674-82.415a5 5 0 0 1 8.294 5.587c-.172.255-17.33 26.135-34.629 80.456-15.976 50.163-35.336 135.519-36.853 257.281-1.412 113.344-10.229 203.307-28.587 291.696-16.989 81.794-40.817 157.635-75.23 264.002-9.56 29.549-19.488 58.904-29.999 89.983-60.817 179.817-123.704 365.756-100.535 547.942a5 5 0 0 1-4.967 5.632M2500 1607.741a5 5 0 0 1-5-5V717.613a5 5 0 0 1 10 0v885.127a5 5 0 0 1-5 5.001" style="fill:#3c3c3c"></path>
  <circle cx="2500" cy="1602.741" r="47.23" style="fill:#fff"></circle>
  <path d="M2500 1654.97c-28.8 0-52.23-23.43-52.23-52.229s23.43-52.229 52.23-52.229 52.229 23.43 52.229 52.229-23.429 52.229-52.229 52.229m0-94.459c-23.286 0-42.23 18.944-42.23 42.229s18.944 42.229 42.23 42.229 42.229-18.944 42.229-42.229-18.944-42.229-42.229-42.229" style="fill:#3c3c3c"></path>
  <path d="M3206.278 3414.031a5 5 0 0 1-4.646-3.148l-702.025-1760.054-730.579 1542.061a5 5 0 1 1-9.037-4.281l735.49-1552.43a5.02 5.02 0 0 1 4.676-2.857 5 5 0 0 1 4.487 3.145l706.276 1770.711a5.002 5.002 0 0 1-4.642 6.853" style="fill:#3c3c3c"></path>
  <path d="M2500 3414.03a5 5 0 0 1-5-5V1649.97a5 5 0 0 1 10 0v1759.06a5 5 0 0 1-5 5M2500 722.613c-58.115 0-112.752-22.631-153.846-63.725-41.093-41.093-63.725-95.73-63.725-153.845V451a5 5 0 0 1 5-5h425.141a5 5 0 0 1 5 5v54.043c0 58.115-22.631 112.752-63.725 153.845s-95.73 63.725-153.845 63.725M2292.43 456v49.043c0 114.455 93.116 207.57 207.57 207.57 114.455 0 207.57-93.115 207.57-207.57V456z" style="fill:#3c3c3c"></path>
</svg>
