<svg id="SvgjsSvg1001" width="288" height="288" xmlns="http://www.w3.org/2000/svg" version="1.1" xmlns:xlink="http://www.w3.org/1999/xlink" xmlns:svgjs="http://svgjs.com/svgjs"><defs id="SvgjsDefs1002"></defs><g id="SvgjsG1008"><svg xmlns="http://www.w3.org/2000/svg" viewBox="0 0 24 24" width="288" height="288"><path fill="#af5265" d="M7.75 20.84a9.465 9.465 0 0 1-5.98-8.81h20.46a9.47 9.47 0 0 1-5.97 8.8v.01a9.625 9.625 0 0 1-3.49.66h-1.54a9.551 9.551 0 0 1-3.48-.66zm7.26-4.08a3.01 3.01 0 1 0 0 .004v-.004z" class="color56b1ff svgShape"></path><path fill="#c3e24c" d="M13.11 4.54A2.752 2.752 0 0 1 14.471.894L14.48.89c3.02-1.37 6.54.07 6.54.07s-1.24 3.6-4.25 4.97a2.768 2.768 0 0 1-3.66-1.38v-.01z" class="colorc3e24c svgShape"></path><path fill="#ffcd5a" d="M11.8 9.25a2.92 2.92 0 0 1 3.44.91s2.68-.63 2.86 1.68v.19H5.9v-.19s1.24-2.5 4.81-1.64c.24-.435.626-.772 1.09-.95z" class="colorffcd5a svgShape"></path><path fill="#af5265" d="M16.26 20.84v.76a2.1 2.1 0 0 1-2.1 2.1H9.85a2.1 2.1 0 0 1-2.1-2.1v-.76a9.551 9.551 0 0 0 3.48.66h1.54a9.625 9.625 0 0 0 3.49-.66z" class="color569aff svgShape"></path><path fill="#ffffff" d="M11.03 17.33a1.181 1.181 0 0 0 1.47-.1c.188-.176.314-.407.36-.66.022-.536.413-.984.94-1.08 0 0-2.26-1.17-3.16.3a1.1 1.1 0 0 0 .349 1.516l.041.024zm.97-3.58a3.015 3.015 0 1 1-3.01 3.02v-.01A3.013 3.013 0 0 1 12 13.75z" class="colorfff svgShape"></path><path fill="#c3e24c" d="M11.03 17.33a1.1 1.1 0 0 1-.414-1.499l.024-.041c.9-1.47 3.16-.3 3.16-.3a1.146 1.146 0 0 0-.94 1.08 1.197 1.197 0 0 1-.36.66 1.181 1.181 0 0 1-1.47.1zm-.25-10.86c0 .195-.194.473-.306.626-.14.192-.314.358-.51.491a2.073 2.073 0 0 1-1.349.353c-.519-.05-1.019-.328-1.461-.588A6.943 6.943 0 0 1 4.58 4.68a6.901 6.901 0 0 1 4.8-.76 2.055 2.055 0 0 1 1.4 2.55z" class="colorc3e24c svgShape"></path><path fill="none" stroke="#000" stroke-linecap="round" stroke-linejoin="round" stroke-width=".5" d="M11.91 16.2a1.862 1.862 0 0 0-.88 1.13c-.109.449-.092.92.05 1.36" class="colorStroke000 svgStroke"></path><path fill="none" stroke="#000" stroke-linecap="round" stroke-linejoin="round" stroke-width=".5" d="M10.64 15.79a1.1 1.1 0 0 0 .39 1.54 1.181 1.181 0 0 0 1.47-.1c.188-.176.314-.407.36-.66.022-.536.413-.984.94-1.08 0 0-2.26-1.17-3.16.3z" class="colorStroke000 svgStroke"></path><path fill="none" stroke="#000" stroke-linecap="round" stroke-linejoin="round" stroke-width=".5" d="M16.26 20.83a9.47 9.47 0 0 0 5.97-8.8H1.77a9.45 9.45 0 0 0 9.43 9.47h1.57a9.625 9.625 0 0 0 3.49-.66" class="colorStroke000 svgStroke"></path><path fill="none" stroke="#000" stroke-linecap="round" stroke-linejoin="round" stroke-width=".5" d="M16.26 20.83v.77a2.1 2.1 0 0 1-2.1 2.1h0-4.31a2.1 2.1 0 0 1-2.1-2.1h0v-.77m7.26-4.07A3.01 3.01 0 1 1 12 13.75a3.016 3.016 0 0 1 3.01 3.01zm3.09-4.92c-.18-2.31-2.86-1.68-2.86-1.68a2.92 2.92 0 0 0-3.44-.91c-.464.178-.85.515-1.09.95-3.57-.86-4.81 1.64-4.81 1.64m10.87-5.91a2.768 2.768 0 0 1-3.66-1.38v-.01A2.752 2.752 0 0 1 14.471.894L14.48.89c3.02-1.37 6.54.07 6.54.07s-1.24 3.6-4.25 4.97zM16.12 3.19l1.34.51M16.62 1.85l-.51 1.34" class="colorStroke000 svgStroke"></path><path fill="none" stroke="#000" stroke-linecap="round" stroke-linejoin="round" stroke-width=".5" d="m15.2 2.49-.51 1.34 1.35.51" class="colorStroke000 svgStroke"></path><path fill="none" stroke="#000" stroke-linecap="round" stroke-linejoin="round" stroke-width=".5" d="m17.97 2.36-1.85.83h-.01l-1.42.64-1.58.71-1.31.59M8.243 7.859c.236.061.479.09.722.076A2.028 2.028 0 0 0 10.78 6.46a2.049 2.049 0 0 0-1.4-2.54 6.901 6.901 0 0 0-4.8.76c-.107.061 1.122 1.533 1.245 1.653a7.302 7.302 0 0 0 1.762 1.274c.208.106.429.194.656.252z" class="colorStroke000 svgStroke"></path><path fill="none" stroke="#000" stroke-linecap="round" stroke-linejoin="round" stroke-width=".5" d="m7.91 4.86.52.93-.94.52M9.03 5.17l.51.94-.93.52" class="colorStroke000 svgStroke"></path><path fill="none" stroke="#000" stroke-linecap="round" stroke-linejoin="round" stroke-width=".5" d="m6.98 5.38 1.45.41 1.11.32 1.24.35 1.02.29M11.8 9.26V3.7" class="colorStroke000 svgStroke"></path></svg></g></svg>