<svg id="SvgjsSvg1060" width="288" height="288" xmlns="http://www.w3.org/2000/svg" version="1.1" xmlns:xlink="http://www.w3.org/1999/xlink" xmlns:svgjs="http://svgjs.com/svgjs"><defs id="SvgjsDefs1061"></defs><g id="SvgjsG1062" transform="matrix(1,0,0,1,0,0)"><svg xmlns="http://www.w3.org/2000/svg" viewBox="0 0 64 64" width="288" height="288"><path fill="#ffbf66" d="M61 17c0-4.418-2.686-8-6-8s-6 3.582-6 8c0 3.482 1.671 6.436 4 7.535V53a2 2 0 1 0 4 0V24.535c2.329-1.099 4-4.053 4-7.535zM7 17v-6a2 2 0 1 1 4 0v6-6a2 2 0 1 1 4 0v10a2 2 0 0 1-2 2h-2v30a2 2 0 1 1-4 0V23H5a2 2 0 0 1-2-2V11a2 2 0 1 1 4 0v6z" class="colorfac05e svgShape"></path><path fill="#bee2af" d="M37 16c0 4.971-5 9-5 9s-5-4.029-5-9 5-9 5-9 5 4.029 5 9zm5.117 18.117c-3.515 3.515-9.899 2.828-9.899 2.828s-.686-6.385 2.828-9.899c3.515-3.515 9.899-2.828 9.899-2.828s.687 6.385-2.828 9.899z" class="color59cd90 svgShape"></path><path fill="#bee2af" d="M28.954 27.046c3.515 3.515 2.828 9.899 2.828 9.899s-6.385.686-9.899-2.828c-3.515-3.515-2.828-9.899-2.828-9.899s6.384-.686 9.899 2.828zm13.163 22.908c-3.515 3.515-9.899 2.828-9.899 2.828s-.686-6.385 2.828-9.899c3.515-3.515 9.899-2.828 9.899-2.828s.687 6.384-2.828 9.899z" class="color59cd90 svgShape"></path><path fill="#bee2af" d="M28.954 42.883c3.515 3.515 2.828 9.899 2.828 9.899s-6.385.686-9.899-2.828c-3.515-3.515-2.828-9.899-2.828-9.899s6.384-.687 9.899 2.828z" class="color59cd90 svgShape"></path><path fill="#41454a" d="M55 8c-3.86 0-7 4.037-7 9 0 3.488 1.584 6.661 4 8.131V53c0 1.654 1.346 3 3 3s3-1.346 3-3V25.131c2.416-1.47 4-4.643 4-8.131 0-4.963-3.14-9-7-9zm1.573 15.631a.999.999 0 0 0-.573.904V53a1.001 1.001 0 0 1-2 0V24.535a.999.999 0 0 0-.573-.904C51.377 22.663 50 19.998 50 17c0-3.859 2.243-7 5-7s5 3.141 5 7c0 2.998-1.377 5.663-3.427 6.631zM16 11c0-1.654-1.346-3-3-3-.768 0-1.469.29-2 .766C10.469 8.29 9.768 8 9 8s-1.469.29-2 .766A2.987 2.987 0 0 0 5 8c-1.654 0-3 1.346-3 3v10c0 1.654 1.346 3 3 3h1v29c0 1.654 1.346 3 3 3s3-1.346 3-3V24h1c1.654 0 3-1.346 3-3V11zm-2 10c0 .552-.449 1-1 1h-2a1 1 0 0 0-1 1v30a1.001 1.001 0 0 1-2 0V23a1 1 0 0 0-1-1H5c-.551 0-1-.448-1-1V11a1.001 1.001 0 0 1 2 0v6a1 1 0 1 0 2 0v-6a1.001 1.001 0 0 1 2 0v6a1 1 0 1 0 2 0v-6a1.001 1.001 0 0 1 2 0v10zm28.825 29.661c3.809-3.811 3.146-10.435 3.115-10.714a1 1 0 0 0-.887-.888c-.28-.029-6.905-.692-10.713 3.116a9.01 9.01 0 0 0-1.339 1.737v-5.918c.163.005.344.008.542.008 2.217 0 6.5-.397 9.282-3.179 3.809-3.81 3.146-10.434 3.115-10.713a1 1 0 0 0-.887-.888c-.28-.029-6.904-.693-10.713 3.115a9.04 9.04 0 0 0-1.339 1.737v-2.619c1.218-1.088 5-4.837 5-9.457 0-5.387-5.153-9.602-5.373-9.778a1 1 0 0 0-1.255 0C31.153 6.398 26 10.613 26 16c0 4.62 3.782 8.369 5 9.457v2.619a9.01 9.01 0 0 0-1.339-1.737c-3.809-3.81-10.434-3.145-10.713-3.115a1 1 0 0 0-.887.888c-.03.279-.694 6.903 3.115 10.713 2.782 2.782 7.065 3.179 9.282 3.179.199 0 .379-.003.542-.008v5.918a9.04 9.04 0 0 0-1.339-1.737c-3.809-3.81-10.433-3.145-10.713-3.116a1 1 0 0 0-.887.888c-.03.279-.694 6.903 3.115 10.714 2.781 2.781 7.062 3.178 9.28 3.178.2 0 .381-.003.545-.008V58h2v-4.17c.164.005.345.008.545.008 2.217.001 6.498-.397 9.279-3.177zm-7.072-22.908c2.417-2.417 6.489-2.616 8.243-2.584.038 1.752-.16 5.815-2.585 8.241-2.417 2.416-6.496 2.61-8.243 2.585-.039-1.752.16-5.816 2.585-8.242zM22.589 33.41c-2.417-2.417-2.619-6.489-2.583-8.242 1.743-.044 5.815.159 8.241 2.585 2.416 2.417 2.619 6.487 2.584 8.242-1.756.03-5.825-.169-8.242-2.585zm0 15.837c-2.417-2.417-2.619-6.49-2.583-8.243 1.745-.043 5.815.16 8.241 2.586 2.417 2.417 2.62 6.489 2.584 8.242-1.754.045-5.816-.16-8.242-2.585zM28 16c0-3.417 2.734-6.438 4-7.654 1.266 1.216 4 4.237 4 7.654 0 2.914-1.986 5.536-3.357 7h-1.287C29.986 21.536 28 18.914 28 16zm7.753 27.59c2.416-2.416 6.493-2.615 8.241-2.585.036 1.755-.168 5.826-2.583 8.242-2.417 2.417-6.491 2.611-8.243 2.584-.039-1.752.16-5.815 2.585-8.241zM21.941 5.865 21.222 4c-.622.239-1.243.503-1.846.783l.843 1.814a28.503 28.503 0 0 1 1.722-.732zM18.55 7.443l-.963-1.754c-.585.322-1.166.667-1.725 1.025l1.08 1.684c.524-.336 1.06-.655 1.608-.955zm10.456-5.295c-.663.066-1.332.155-1.989.266l.331 1.973a27.598 27.598 0 0 1 1.856-.248l-.198-1.991zm-3.955.664c-.646.153-1.297.332-1.935.529l.592 1.91a27.937 27.937 0 0 1 1.806-.494l-.463-1.945zm13.914.003-.464 1.945c.609.146 1.21.311 1.804.495l.595-1.91a30.597 30.597 0 0 0-1.935-.53zm9.185 3.907c-.562-.359-1.136-.7-1.722-1.023l-.966 1.751c.548.302 1.085.621 1.61.957l1.078-1.685zm-5.357-2.716-.721 1.865c.583.226 1.157.47 1.721.732l.846-1.812c-.6-.28-1.221-.544-1.846-.785zM35.012 2.15l-.198 1.99c.625.062 1.243.146 1.854.248L37 2.416a30.99 30.99 0 0 0-1.988-.266zm-2-.132a29.168 29.168 0 0 0-2.006-.001l.067 1.998c.621-.021 1.25-.019 1.872.001l.067-1.998zm9.047 56.117L42.778 60a29.684 29.684 0 0 0 1.846-.783l-.843-1.814c-.564.262-1.138.506-1.722.732zm-18.958 2.519c.632.196 1.283.375 1.935.53l.464-1.945a28.728 28.728 0 0 1-1.804-.495l-.595 1.91zm22.349-4.097.963 1.754a30.351 30.351 0 0 0 1.725-1.025l-1.08-1.684c-.524.336-1.06.655-1.608.955zm-26.089 2.652c.6.28 1.221.544 1.846.785l.721-1.865a28.75 28.75 0 0 1-1.721-.732l-.846 1.812zm-3.511-1.931c.562.359 1.136.7 1.722 1.023l.966-1.752a28.542 28.542 0 0 1-1.61-.957l-1.078 1.686zm15.204 2.706-.066 1.998a28.38 28.38 0 0 0 2.006.001l-.067-1.998c-.622.02-1.251.019-1.873-.001zm3.741-.123.198 1.99a29.576 29.576 0 0 0 1.989-.266l-.331-1.973c-.611.104-1.231.187-1.856.249zm3.691-.618.463 1.945a30.116 30.116 0 0 0 1.935-.529l-.592-1.91c-.594.184-1.196.349-1.806.494zM27 61.584c.656.11 1.325.199 1.987.266l.198-1.99a28.108 28.108 0 0 1-1.854-.248L27 61.584z" class="color0f272a svgShape"></path></svg></g></svg>